PathFileType	4	(X/Y/Z)	Patient4_TMGait_0pt8_01_left_23.trc.trc
DataRate	CameraRate	NumFrames	NumMarkers	Units	OrigDataRate	OrigDataStartFrame	OrigNumFrames
89.171974522293	89.171974522293	5	33	mm	89.171974522293	71	       141
Frame#	Time	Sacral			L.Shoulder			Chest			R.Shoulder			Neck			R.ASIS			L.ASIS			R.Thigh.Superior			R.Thigh.Lateral			R.Thigh.Inferior			R.Patella			L.Thigh.Superior			L.Thigh.Lateral			L.Thigh.Inferior			L.Patella			L.Shank.Superior			L.Shank.Lateral			L.Shank.Inferior			R.Shank.Superior			R.Shank.Lateral			R.Shank.Inferior			R.Heel			R.Midfoot.Superior			R.Midfoot.Lateral			R.Toe			L.Heel			L.Midfoot.Lateral			L.Midfoot.Superior			L.Toe			L.Elbow			L.Wrist			R.Elbow			R.Wrist			
		X1	Y1	Z1	X2	Y2	Z2	X3	Y3	Z3	X4	Y4	Z4	X5	Y5	Z5	X6	Y6	Z6	X7	Y7	Z7	X8	Y8	Z8	X9	Y9	Z9	X10	Y10	Z10	X11	Y11	Z11	X12	Y12	Z12	X13	Y13	Z13	X14	Y14	Z14	X15	Y15	Z15	X16	Y16	Z16	X17	Y17	Z17	X18	Y18	Z18	X19	Y19	Z19	X20	Y20	Z20	X21	Y21	Z21	X22	Y22	Z22	X23	Y23	Z23	X24	Y24	Z24	X25	Y25	Z25	X26	Y26	Z26	X27	Y27	Z27	X28	Y28	Z28	X29	Y29	Z29	X30	Y30	Z30	X31	Y31	Z31	X32	Y32	Z32	X33	Y33	Z33	

71	25.855000000000	886.330238748312	988.998689812157	446.770475582471	1071.989816753905	1428.112868015373	293.661852450595	1158.132547391467	1355.917176166810	462.766381933861	1054.167416986406	1420.878534949165	629.169832300640	1033.418234709076	1481.788037653326	449.421348445682	1105.602711870124	933.300054965783	582.652636172959	1110.916852922076	952.911766826393	307.329797933582	1182.964279902644	756.682873607350	556.944018324858	1136.907659681705	636.819286996990	628.809275695697	1223.944021141571	600.203614970841	547.803536973989	1257.036850863656	523.827268420951	564.655438041660	1107.509182725930	721.017181903611	336.922330515743	989.133728768223	628.586857500498	270.800584167584	1041.781367062185	533.969390537366	340.099676765330	1023.374814856871	467.587471843575	350.232491732225	988.154423500796	401.960420840877	342.018315048916	883.605459462396	301.466332885720	290.620802216095	912.750350505197	185.628355592549	365.631352872491	1252.275028127798	434.651073533207	576.745238423671	1211.372910595444	315.667121838199	639.262640371445	1290.751050414946	237.905065601311	588.310541137449	1217.381700664052	45.787425869513	557.577730821762	1375.083101809726	127.438335381906	600.119736532561	1300.898365586818	47.178892859973	631.871467897411	1501.096995079782	96.633819816843	627.111161643227	768.391756291939	39.605666885239	410.305959669487	839.819711049066	35.922790154409	327.798565326275	924.813776819303	95.315114601891	353.877847406183	1051.325115123068	42.764136911878	319.921560300362	1199.808604244880	1130.355997359086	134.005583286117	1454.076338875886	1119.608852933133	174.656035521561	881.243508067821	1120.452173651162	713.455816193505	807.924121327739	873.636833997084	732.329500866149	
72	25.866214285714	888.587250873457	986.775695727578	449.141831920138	1072.472457205249	1425.937805094896	295.194687841635	1158.791190959958	1354.582096354820	464.512929421264	1054.403618977555	1419.662818688591	630.614701344989	1033.777692705842	1479.872713474113	450.852164693256	1107.968599188741	931.283530696390	585.034740335173	1113.294645582283	951.042484527148	309.564398367170	1184.622461195117	753.924497051160	559.402152151476	1136.233910759451	633.371530289632	629.224839528772	1224.014064827569	597.433406988681	549.117260659361	1255.234555088486	520.511701347033	564.694701758689	1108.266031872834	718.771828499804	338.212393295517	988.610366630784	627.375793393196	272.482748538041	1040.786400531311	532.020234563821	341.272442651015	1021.821153987637	465.172021869253	351.271181579401	985.152472848514	400.130001308384	342.997317973413	878.605036220379	301.723453087875	291.278425882828	905.702236753442	185.070381334715	365.710748874289	1251.012863511403	430.975456072610	576.497690921109	1209.301035630864	311.707174205588	637.485402819908	1288.897411029082	234.302814540176	586.707627895454	1215.023332518853	43.820408512884	554.640790090833	1372.671845585236	124.033814724225	597.865716675457	1297.805631103276	45.196254283173	629.718053735562	1498.296810217000	92.372056098329	626.211071596196	759.322260932403	40.257440065587	409.962122956098	830.926659829701	36.073679226154	327.667428824664	916.151796202298	95.315310743339	353.707687683991	1042.541416087267	42.144630903516	319.800731764699	1202.673966160116	1129.975836137794	135.162357244797	1456.281224106931	1128.310423158543	177.571942900746	878.666387763413	1121.766125239498	714.905724769948	803.342030475919	875.477195096275	733.367922641124	
73	25.877428571429	890.884073359566	984.691139509045	451.750160175891	1072.979869119178	1423.792536925823	296.770889198431	1159.512720190770	1353.365179004857	466.328881970594	1054.679375904889	1418.507542429560	632.155769662112	1034.194696894972	1478.071589176753	452.331966934807	1110.427561351240	929.414707485891	587.568351869062	1115.703588565182	949.236780523773	312.000436938514	1186.803519887039	751.666797916763	561.929826658770	1135.969023330365	630.254391343335	629.525683043986	1224.819406982002	595.140448557263	550.618930788679	1254.089234737118	517.274862254370	564.797105176245	1109.327057111600	716.663065207039	339.636119637823	988.534428551055	626.151259808439	274.370416031126	1040.503447440439	530.058861582661	342.519704632706	1021.073800424275	462.595482646941	352.301970071228	982.730915834603	398.215032887415	344.011874081634	874.013430008100	302.163546558437	291.987808916004	898.877831886052	184.631360259560	365.731472071895	1249.904731686680	427.311663402008	576.195684686453	1206.771121532083	308.042459336959	635.801961399082	1285.904269955002	230.468357454001	585.077840829277	1209.985605944828	42.397310443320	551.909622100671	1368.240637875032	119.998720822600	595.582264488320	1292.083589762856	43.302695659891	627.771380798803	1493.252274419632	86.533628132903	625.262785599477	750.256117616905	41.321057498060	409.533629868016	822.051288381094	36.368934675225	327.482514332322	907.617736860469	95.377809213387	353.423932019644	1033.790458389062	41.543260253366	319.660587457702	1205.099377005344	1129.194790017620	136.543226779413	1457.823452561941	1135.756237437439	180.474802658544	877.365748406057	1122.247607415257	716.477887200392	800.345881551601	876.443083437690	734.747673235202	
74	25.888642857143	893.174452802995	982.826547946278	454.548264546551	1073.536337452873	1421.766776076467	298.393209630338	1160.318406038121	1352.314007740988	468.206049442141	1055.045931124463	1417.456022793284	633.806680625138	1034.702691303262	1476.471378308898	453.868764391175	1112.927237025014	927.811348318265	590.228245051063	1118.087141722188	947.558959832201	314.623476368898	1189.365892222141	749.896134565085	564.524483298541	1136.087082423464	627.607630681492	629.867828317606	1226.177786009088	593.333410666526	552.310380944253	1253.530293779342	514.260082343364	565.049786671085	1110.705062585562	714.774874611898	341.211160981748	988.980363116346	624.940282957027	276.453879304204	1041.051015323764	528.136209158442	343.836072127730	1021.270531805480	459.893779600488	353.276109487014	980.996828151807	396.263755971220	345.024300898982	869.930011568028	302.871619965201	292.746996702543	892.371319036152	184.393177662087	365.664875590944	1248.970985939479	423.854846743350	575.952064511682	1204.056268482404	304.812742264010	634.431362083506	1282.133860327886	226.640259141347	583.571950004731	1202.936021239366	41.485540323999	549.577090100132	1362.345265997929	115.649941957606	593.416894862267	1284.467565121098	41.571385695477	626.150373622872	1486.605034210948	79.691541308170	624.263294417424	741.248305411790	42.975463933917	409.021005525415	813.215358252274	36.904437204066	327.241675004012	899.284922072705	95.523426762288	352.996308383092	1025.069100739887	40.974230057973	319.504145223652	1207.041911560380	1128.010011909042	138.179233378265	1458.773023049547	1141.889516056176	183.356099545727	877.358095589555	1121.893651311170	718.177156929879	798.959870420382	876.535805227361	736.493179702731	
75	25.899857142857	895.411867644580	981.267393009243	457.481843235936	1074.159890615332	1419.961442642569	300.064295992370	1161.221210408489	1351.484328601303	470.134616226023	1055.549111796822	1416.569260518556	635.574391136886	1035.326427996455	1475.163775416121	455.468244424854	1115.408146090178	926.589226093059	592.990280893003	1120.393765680033	946.084139088172	317.411040797918	1192.140892127787	748.606581934155	567.178600944965	1136.571192662587	625.569238424566	630.409674070837	1227.883797785596	592.023930366930	554.172204856914	1253.453362608922	511.611185800680	565.543557103787	1112.419862081810	713.192406782134	342.959852287467	990.040875427805	623.770275590601	278.714410396811	1042.561752965320	526.310578185479	345.215312729342	1022.558200638801	457.119529054873	354.143141024273	980.077020587801	394.334224252048	345.990198238055	866.478458914832	303.944338740191	293.552395926497	886.303938198586	184.453156131309	365.481741743831	1248.193484889846	420.787799524711	575.877728917575	1201.359671032018	302.152140474299	633.555624042389	1277.880601585568	223.060371522312	582.320047798489	1194.521900913291	41.028369430270	547.766052959807	1355.459757174513	111.339957862890	591.506454448555	1275.640130062664	40.077511427866	624.929125758854	1478.913110325839	72.508684795958	623.254529379514	732.385064887796	45.430150987193	408.428889343448	804.457071329654	37.807096100848	326.946340404567	891.244969410529	95.779869505887	352.397258753627	1016.368724571170	40.447143062268	319.338428311994	1208.455551398487	1126.441033859029	140.105207941059	1459.190198250940	1146.661635632878	186.210248178223	878.625211371302	1120.767398788978	720.012247074176	799.226016805433	875.797099882735	738.611426949078	
